# xmcd
#
# Track frame offsets:
#	150
#	14930
#	25482
#	42022
#	59625
#	72632
#	93517
#	106860
#	121260
#	137032
#	151987
#	165787
#	184647
#	200002
#
# Disc length: 2836 seconds
#
# Revision: 3
# Processed by: cddbd v1.5.2PL0 Copyright (c) Steve Scherf et al.
# Submitted via: audiograbber 1.83.01
#
DISCID=c30b120e
DTITLE=Various Artist - Mr. Music Country 05-96
DYEAR=1996
DGENRE=Country
TTITLE0=James R. Walls - Armadillo Heart
TTITLE1=Josh Logan - Holdin' my own
TTITLE2=Kimmie Rhodes and Waylon Jennings - Mayby we'll just disappear
TTITLE3=Tom Pearson - Angel Eyes
TTITLE4=Dallas County Line - Honk if you love to honky tonk
TTITLE5=Ray Willie Hubbard - Loco Gringo's lament
TTITLE6=Shelby Lynne - Feelin' kind of lonely tonight
TTITLE7=Dale Watson - She needs her mama
TTITLE8=Philip Claypool - She kicked my dog
TTITLE9=Willie Nelson and Curtis Potter - It should be easier now
TTITLE10=Karen Wheeler - Gypsy love
TTITLE11=Smoking armadillos - Miracle man
TTITLE12=Janis Leigh - The last thing on my mind
TTITLE13=Larry Kingston - A different Man tonight
EXTD=
EXTT0=
EXTT1=
EXTT2=
EXTT3=
EXTT4=
EXTT5=
EXTT6=
EXTT7=
EXTT8=
EXTT9=
EXTT10=
EXTT11=
EXTT12=
EXTT13=
PLAYORDER=
